<svg width="24" height="24" viewBox="0 0 24 24" fill="none" xmlns="http://www.w3.org/2000/svg">
<path d="M20.0637 19.1399L20.0819 19.158L20.102 19.1742L23.1676 21.6488L23.2996 21.7554C23.6022 22.1876 23.5621 22.7914 23.1794 23.1782C22.7582 23.6039 22.0796 23.6072 21.6544 23.1882L19.1216 20.2854L19.1216 20.2854L19.119 20.2825L19.033 20.1855C18.9277 20.0477 18.8692 19.877 18.8692 19.6996C18.8692 19.4883 18.9522 19.2866 19.0984 19.1387C19.3673 18.8729 19.7952 18.8733 20.0637 19.1399ZM10.2932 0.5C12.8887 0.5 15.3791 1.54213 17.2161 3.39889C19.0533 5.25583 20.0863 7.77551 20.0863 10.4039C20.0863 15.8787 15.6968 20.3078 10.2932 20.3078C4.88958 20.3078 0.5 15.8787 0.5 10.4039C0.5 4.92907 4.88958 0.5 10.2932 0.5Z" fill="#F8E00D" stroke="#550A8F"/>
</svg>
