<svg width="24" height="24" viewBox="0 0 24 24" fill="none" xmlns="http://www.w3.org/2000/svg">
<path d="M12 16.3087C15.245 16.3087 18.1874 16.521 20.3042 17.1208C21.363 17.4208 22.1734 17.8065 22.7113 18.2762C23.2336 18.7322 23.5 19.2652 23.5 19.9188C23.5 20.5713 23.2325 21.1022 22.708 21.5558C22.1676 22.0232 21.3539 22.4057 20.2924 22.7023C18.1705 23.2951 15.2277 23.5 12 23.5C8.75575 23.5 5.81338 23.2877 3.69637 22.6879C2.63745 22.3879 1.82692 22.0022 1.28884 21.5325C0.766478 21.0765 0.5 20.5434 0.5 19.89C0.5 19.2374 0.767496 18.7065 1.29196 18.2529C1.83242 17.7855 2.64611 17.403 3.70757 17.1064C5.82947 16.5136 8.77231 16.3087 12 16.3087ZM12 0.5C16.2426 0.5 19.441 3.19952 19.441 6.34926C19.441 9.49911 16.2425 12.1997 12 12.1997C7.75892 12.1997 4.55902 9.49906 4.55902 6.34926C4.55902 3.19957 7.75879 0.5 12 0.5Z" fill="white" stroke="#550A8F"/>
</svg>
