<svg width="60" height="38" viewBox="0 0 60 38" fill="none" xmlns="http://www.w3.org/2000/svg">
<path d="M30.059 32.9996C33.6622 29.4996 35.938 24.4996 35.938 18.9996C35.938 13.3996 33.6622 8.39961 30.059 4.99961C26.835 1.99961 22.6627 0.0996094 18.0164 0.0996094C8.05997 0.0996094 0 8.59961 0 18.9996C0 29.4996 8.05997 37.9996 18.0164 37.9996C22.6627 37.8996 26.835 35.9996 30.059 32.9996Z" fill="#303030"/>
<path d="M30.0591 33C33.6624 29.5 35.9381 24.5 35.9381 19C35.9381 13.4 33.6624 8.4 30.0591 5" fill="#303030"/>
<path d="M30.0591 33C33.6624 29.5 35.9381 24.5 35.9381 19C35.9381 13.4 33.6624 8.4 30.0591 5" stroke="#303030" stroke-width="0.3097"/>
<path d="M42.1015 0C37.4551 0 33.1881 1.89999 30.0589 4.89999C29.3952 5.49999 28.8262 6.19999 28.2573 6.89999H31.8606C32.3347 7.49999 32.8088 8.19999 33.1881 8.89999H26.8349C26.4556 9.49999 26.0763 10.2 25.7919 10.9H34.2311C34.5156 11.6 34.8001 12.2 34.9897 12.9H25.0333C24.8437 13.6 24.654 14.2 24.4644 14.9H35.4639C35.7483 16.2 35.8431 17.5 35.8431 18.9C35.8431 21 35.5587 23 34.8949 24.9H24.9385C25.1281 25.6 25.4126 26.3 25.697 26.9H34.1363C33.8518 27.6 33.4726 28.3 33.0933 28.9H26.7401C27.1194 29.6 27.5935 30.3 28.0676 30.9H31.6709C31.102 31.6 30.533 32.3 29.8693 32.9C33.0932 35.9 37.2655 37.8 41.9118 37.8C51.8682 37.8 59.8334 29.3 59.8334 18.8C60.1179 8.5 52.0579 0 42.1015 0Z" fill="#4D4D4D"/>
<path d="M15.7403 23.6H13.4646L14.7921 16.2L11.7577 23.6H9.76646L9.38717 16.3L8.05962 23.6H6.06836L7.77516 14H11.2836L11.4733 20L13.9387 14H17.5419L15.7403 23.6Z" fill="white"/>
<path d="M40.774 23.5996C40.205 23.7996 39.6361 23.8996 39.162 23.8996C38.0241 23.8996 37.3604 23.2996 37.3604 22.1996C37.3604 21.9996 37.3603 21.6996 37.4552 21.4996L37.55 20.6996L37.6448 20.0996L38.6879 14.0996H40.8688L40.5843 15.8996H41.7222L41.4377 17.7996H40.2998L39.7309 21.0996C39.7309 21.1996 39.7309 21.3996 39.7309 21.3996C39.7309 21.7996 40.0154 21.9996 40.4895 21.9996C40.774 21.9996 40.9636 21.9996 41.0584 21.8996L40.774 23.5996Z" fill="white"/>
<path d="M47.2216 15.8998C47.032 15.7998 47.032 15.7998 46.9371 15.7998C46.8423 15.7998 46.7475 15.7998 46.7475 15.7998C46.6527 15.7998 46.5578 15.7998 46.463 15.7998C45.7044 15.7998 45.2303 16.0998 44.4718 17.0998L44.6614 15.8998H42.8597L41.5322 23.6998H43.808C44.5666 18.8998 44.9458 18.0998 45.9889 18.0998C46.0837 18.0998 46.1786 18.0998 46.2734 18.0998L46.5578 18.1998L47.2216 15.8998Z" fill="white"/>
<path d="M31.8607 18.3002C31.8607 19.3002 32.4297 20.0002 33.5676 20.5002C34.5158 20.9002 34.6106 21.0002 34.6106 21.4002C34.6106 21.9002 34.2313 22.1002 33.2831 22.1002C32.6193 22.1002 31.9555 22.0002 31.2918 21.8002L31.0073 23.6002H31.1022L31.4814 23.7002C31.5763 23.7002 31.8607 23.8002 32.0504 23.8002C32.6193 23.8002 32.9986 23.9002 33.2831 23.9002C35.6537 23.9002 36.7915 23.1002 36.7915 21.3002C36.7915 20.2002 36.3174 19.6002 35.1795 19.1002C34.2313 18.7002 34.1365 18.6002 34.1365 18.2002C34.1365 17.8002 34.5158 17.6002 35.2744 17.6002C35.7485 17.6002 36.3174 17.6002 36.8864 17.7002L37.1708 15.9002C36.6019 15.8002 35.7485 15.7002 35.1795 15.7002C32.7141 15.7002 31.8607 16.9002 31.8607 18.3002Z" fill="white"/>
<path d="M21.4299 20.2002C21.1454 20.2002 21.0506 20.2002 20.9558 20.2002C19.7231 20.2002 19.0593 20.6002 19.0593 21.4002C19.0593 21.9002 19.3438 22.2002 19.8179 22.2002C20.6714 22.1002 21.3351 21.3002 21.4299 20.2002ZM23.0419 23.6002H21.1455L21.2403 22.8002C20.6714 23.4002 19.9128 23.7002 18.8697 23.7002C17.637 23.7002 16.8784 22.8002 16.8784 21.6002C16.8784 19.7002 18.3008 18.6002 20.7662 18.6002C21.0506 18.6002 21.3351 18.6002 21.7144 18.7002C21.8092 18.4002 21.8092 18.3002 21.8092 18.2002C21.8092 17.7002 21.4299 17.5002 20.3869 17.5002C19.7231 17.5002 19.0593 17.6002 18.5852 17.7002L18.3008 17.8002L18.1111 17.9002L18.3956 16.1002C19.5335 15.8002 20.1972 15.7002 21.0506 15.7002C22.9471 15.7002 23.9902 16.5002 23.9902 18.0002C23.9902 18.4002 23.9901 18.7002 23.8005 19.5002L23.3264 22.3002L23.2316 22.8002L23.1368 23.2002V23.5002L23.0419 23.6002Z" fill="white"/>
<path d="M29.2057 18.7996C29.2057 18.5996 29.2057 18.4996 29.2057 18.3996C29.2057 17.7996 28.8264 17.3996 28.1627 17.3996C27.4041 17.3996 26.93 17.8996 26.7403 18.7996H29.2057ZM30.3436 23.4996C29.585 23.6996 28.8264 23.7996 28.0678 23.7996C25.6024 23.7996 24.2749 22.5996 24.2749 20.2996C24.2749 17.5996 25.8869 15.5996 28.1627 15.5996C29.9643 15.5996 31.197 16.6996 31.197 18.3996C31.197 18.9996 31.1022 19.4996 30.9125 20.2996H26.4559C26.4559 20.3996 26.4559 20.4996 26.4559 20.4996C26.4559 21.3996 27.1196 21.8996 28.4471 21.8996C29.2057 21.8996 29.9643 21.6996 30.8177 21.3996L30.3436 23.4996Z" fill="white"/>
<path d="M51.8684 19.1002C51.8684 18.3002 51.5839 17.5002 50.6357 17.5002C49.4978 17.5002 48.834 18.9002 48.834 20.2002C48.834 21.3002 49.3082 22.0002 50.1616 22.0002C50.6357 22.0002 51.6787 21.3002 51.8684 20.1002C51.8684 19.8002 51.8684 19.4002 51.8684 19.1002ZM54.239 20.1002C53.8597 22.7002 52.1528 23.9002 49.8771 23.9002C47.3169 23.9002 46.3687 22.3002 46.3687 20.3002C46.3687 17.5002 48.0754 15.7002 50.7305 15.7002C53.1011 15.7002 54.239 17.2002 54.239 19.2002C54.3338 19.6002 54.3338 19.6002 54.239 20.1002Z" fill="white"/>
</svg>
