<svg width="62" height="36" viewBox="0 0 62 36" fill="none" xmlns="http://www.w3.org/2000/svg">
<path d="M61.8155 18C61.8155 27.8769 53.5659 36 43.325 36C33.1789 36 24.8345 27.8769 24.8345 18C24.8345 8.12308 33.0841 0 43.2302 0C53.5659 0 61.8155 8.12308 61.8155 18Z" fill="#717171"/>
<path d="M37.0669 18.0923C37.0669 16.8 36.8772 15.5077 36.6876 14.3077H25.3088C25.4036 13.6615 25.5933 13.1077 25.7829 12.3692H35.929C35.7394 11.7231 35.4549 11.0769 35.1704 10.4308H26.5415C26.826 9.78462 27.2053 9.23077 27.5846 8.49231H34.1274C33.7481 7.84615 33.2739 7.2 32.705 6.55385H29.1017C29.6707 5.90769 30.2396 5.35385 30.9982 4.70769C27.7742 1.75385 23.4123 0 18.5764 0C8.5251 0.276923 0.180664 8.12308 0.180664 18C0.180664 27.8769 8.43028 36 18.6712 36C23.5072 36 27.7742 34.1538 31.093 31.2923C31.7568 30.7385 32.3257 30.0923 32.9895 29.3538H29.1966C28.7224 28.8 28.2483 28.1538 27.869 27.5077H34.317C34.6963 26.9538 35.0756 26.3077 35.3601 25.5692H26.7312C26.4467 25.0154 26.1622 24.3692 25.9726 23.6308H36.1186C36.6876 21.9692 37.0669 20.1231 37.0669 18.0923Z" fill="#4D4D4D"/>
<path d="M25.2138 22.6158L25.4983 20.9543C25.4035 20.9543 25.2138 21.0466 25.0242 21.0466C24.3604 21.0466 24.2656 20.6774 24.3604 20.4927L24.9294 17.1697H25.9724L26.2569 15.3235H25.3087L25.4983 14.2158H23.507C23.507 14.2158 22.3691 20.4927 22.3691 21.2312C22.3691 22.3389 23.0329 22.8927 23.9811 22.8927C24.5501 22.8927 25.0242 22.7081 25.2138 22.6158Z" fill="white"/>
<path d="M25.8774 19.5694C25.8774 22.2463 27.7739 22.8925 29.2911 22.8925C30.7134 22.8925 31.3772 22.6156 31.3772 22.6156L31.7565 20.7694C31.7565 20.7694 30.7134 21.231 29.6704 21.231C27.4894 21.231 27.8687 19.6617 27.8687 19.6617H31.8513C31.8513 19.6617 32.1358 18.4617 32.1358 17.9079C32.1358 16.7079 31.472 15.1386 29.2911 15.1386C27.3946 15.0463 25.8774 17.1694 25.8774 19.5694ZM29.2911 16.8002C30.3341 16.8002 30.1445 18.0002 30.1445 18.0925H27.9636C28.0584 18.0002 28.248 16.8002 29.2911 16.8002Z" fill="white"/>
<path d="M41.713 22.6151L42.0923 20.492C42.0923 20.492 41.1441 20.9535 40.3855 20.9535C39.058 20.9535 38.3942 19.9381 38.3942 18.7381C38.3942 16.4305 39.5321 15.2305 40.9544 15.2305C41.9027 15.2305 42.7561 15.7843 42.7561 15.7843L43.0406 13.7535C43.0406 13.7535 41.9027 13.292 40.7648 13.292C38.489 13.292 36.3081 15.2305 36.3081 18.8305C36.3081 21.2305 37.446 22.7997 39.8166 22.7997C40.67 22.892 41.713 22.6151 41.713 22.6151Z" fill="white"/>
<path d="M14.4989 15.0459C13.1714 15.0459 12.1283 15.4151 12.1283 15.4151L11.8438 17.0767C11.8438 17.0767 12.6972 16.7074 14.0248 16.7074C14.6885 16.7074 15.2575 16.7997 15.2575 17.3536C15.2575 17.7228 15.1626 17.8151 15.1626 17.8151H14.3092C12.6024 17.8151 10.8008 18.4613 10.8008 20.6767C10.8008 22.4305 11.9387 22.7997 12.6972 22.7997C14.0248 22.7997 14.6885 21.969 14.7834 21.969L14.6885 22.7074H16.3005L17.0591 17.4459C17.0591 15.1382 15.1626 15.0459 14.4989 15.0459ZM14.8782 19.2921C14.8782 19.569 14.6885 21.1382 13.5507 21.1382C12.9817 21.1382 12.7921 20.6767 12.7921 20.3997C12.7921 19.9382 13.0765 19.2921 14.5937 19.2921C14.7834 19.2921 14.8782 19.2921 14.8782 19.2921Z" fill="white"/>
<path d="M18.9551 22.8003C19.4292 22.8003 21.8946 22.8926 21.8946 20.3079C21.8946 17.9079 19.524 18.3695 19.524 17.4464C19.524 16.9849 19.9033 16.8003 20.567 16.8003C20.8515 16.8003 21.8946 16.8926 21.8946 16.8926L22.179 15.1387C22.179 15.1387 21.5153 14.9541 20.2826 14.9541C18.8602 14.9541 17.3431 15.5079 17.3431 17.4464C17.3431 19.6618 19.8085 19.4772 19.8085 20.3079C19.8085 20.8618 19.1447 20.9541 18.6706 20.9541C17.8172 20.9541 16.8689 20.6772 16.8689 20.6772L16.5845 22.431C16.7741 22.6156 17.3431 22.8003 18.9551 22.8003Z" fill="white"/>
<path d="M58.0228 13.5693L57.6435 16.154C57.6435 16.154 56.8849 15.2309 55.747 15.2309C53.9454 15.2309 52.4282 17.354 52.4282 19.8463C52.4282 21.4155 53.1868 22.9847 54.8936 22.9847C56.0315 22.9847 56.7901 22.2463 56.7901 22.2463L56.6953 22.8924H58.6866L60.1089 13.754L58.0228 13.5693ZM57.0746 18.554C57.0746 19.5693 56.6004 20.954 55.4626 20.954C54.7988 20.954 54.4195 20.4001 54.4195 19.3847C54.4195 17.8155 55.0833 16.8924 56.0315 16.8924C56.6953 16.9847 57.0746 17.4463 57.0746 18.554Z" fill="white"/>
<path d="M3.78367 22.7078L4.92155 15.877L5.11119 22.7078H6.43872L8.99894 15.877L7.95589 22.7078H10.042L11.654 13.5693H8.43001L6.43872 19.2001L6.3439 13.5693H3.4992L1.88721 22.7078H3.78367Z" fill="white"/>
<path d="M34.1272 22.7074C34.6962 19.5689 34.791 16.9843 36.2133 17.4459C36.403 16.2459 36.6874 15.692 36.8771 15.2305H36.4978C35.6444 15.2305 34.8858 16.3382 34.8858 16.3382L35.0755 15.3228H33.179L31.9463 22.7074H34.1272Z" fill="white"/>
<path d="M46.2645 15.0459C44.937 15.0459 43.8939 15.4151 43.8939 15.4151L43.6095 17.0767C43.6095 17.0767 44.4629 16.7074 45.7904 16.7074C46.4542 16.7074 47.0231 16.7997 47.0231 17.3536C47.0231 17.7228 46.9283 17.8151 46.9283 17.8151H46.0749C44.368 17.8151 42.5664 18.4613 42.5664 20.6767C42.5664 22.4305 43.7043 22.7997 44.4629 22.7997C45.7904 22.7997 46.4542 21.969 46.549 21.969L46.4542 22.7074H48.2558L49.0144 17.4459C49.0144 15.1382 46.9283 15.0459 46.2645 15.0459ZM46.7386 19.2921C46.7386 19.569 46.549 21.1382 45.4111 21.1382C44.8422 21.1382 44.6525 20.6767 44.6525 20.3997C44.6525 19.9382 44.937 19.2921 46.4542 19.2921C46.6438 19.2921 46.6438 19.2921 46.7386 19.2921Z" fill="white"/>
<path d="M50.5315 22.7074C51.1005 19.5689 51.1953 16.9843 52.6176 17.4459C52.8073 16.2459 53.0917 15.692 53.2814 15.2305H52.9021C52.0487 15.2305 51.2901 16.3382 51.2901 16.3382L51.4797 15.3228H49.5833L48.3506 22.7074H50.5315Z" fill="white"/>
</svg>
