<svg width="74" height="19" viewBox="0 0 74 19" fill="none" xmlns="http://www.w3.org/2000/svg">
<path d="M28.6743 8.09961C28.4847 9.59961 27.3468 9.59961 26.3038 9.59961H25.7348L26.2089 6.69961C26.2089 6.49961 26.3986 6.39961 26.5882 6.39961H26.8727C27.6313 6.39961 28.2951 6.39961 28.6743 6.79961C28.6743 7.19961 28.6743 7.59961 28.6743 8.09961ZM28.2002 4.09961H24.1228C23.8384 4.09961 23.6487 4.29961 23.5539 4.59961L21.9419 15.5996C21.9419 15.7996 22.0367 15.9996 22.3212 15.9996H24.2177C24.5021 15.9996 24.6918 15.7996 24.7866 15.4996L25.2607 12.4996C25.2607 12.1996 25.5452 11.9996 25.8297 11.9996H27.1572C29.8122 11.9996 31.3294 10.5996 31.8035 7.89961C31.9931 6.69961 31.8035 5.79961 31.3294 5.09961C30.5708 4.49961 29.5278 4.09961 28.2002 4.09961Z" fill="#1D1D1D"/>
<path d="M37.5877 12.1004C37.398 13.3004 36.5446 14.1004 35.4068 14.1004C34.8378 14.1004 34.3637 13.9004 34.0792 13.5004C33.7948 13.1004 33.6999 12.6004 33.7947 12.1004C33.9844 10.9004 34.8378 10.1004 35.9757 10.1004C36.5446 10.1004 37.0187 10.3004 37.3032 10.7004C37.4929 11.0004 37.6825 11.5004 37.5877 12.1004ZM40.2427 8.10039H38.3463C38.1566 8.10039 38.0618 8.20039 37.967 8.40039L37.8722 9.00039L37.7773 8.80039C37.398 8.20039 36.4498 7.90039 35.5016 7.90039C33.3206 7.90039 31.519 9.60039 31.1397 12.0004C30.9501 13.2004 31.2345 14.3004 31.8983 15.1004C32.4672 15.8004 33.3206 16.1004 34.3637 16.1004C36.0705 16.1004 37.0187 14.9004 37.0187 14.9004L36.9239 15.5004C36.9239 15.7004 37.0187 15.9004 37.3032 15.9004H39.01C39.2945 15.9004 39.4841 15.7004 39.579 15.4004L40.622 8.40039C40.622 8.30039 40.5272 8.10039 40.2427 8.10039Z" fill="#1D1D1D"/>
<path d="M50.5788 8.09961H48.5875C48.3979 8.09961 48.2082 8.19961 48.1134 8.39961L45.4584 12.5996L44.3205 8.59961C44.2257 8.29961 44.036 8.19961 43.7516 8.19961H41.8551C41.6654 8.19961 41.4758 8.39961 41.5706 8.69961L43.7516 15.2996L41.7603 18.2996C41.5706 18.4996 41.7603 18.8996 42.0447 18.8996H44.036C44.2257 18.8996 44.4153 18.7996 44.5102 18.5996L50.9581 8.69961C51.0529 8.39961 50.8633 8.09961 50.5788 8.09961Z" fill="#1D1D1D"/>
<path d="M57.501 8.09961C57.3114 9.59961 56.1735 9.59961 55.1304 9.59961H54.5615L55.0356 6.69961C55.0356 6.49961 55.2253 6.39961 55.4149 6.39961H55.6994C56.458 6.39961 57.1217 6.39961 57.501 6.79961C57.5958 7.19961 57.5958 7.59961 57.501 8.09961ZM57.0269 4.09961H52.9495C52.665 4.09961 52.4754 4.29961 52.3806 4.59961L50.7686 15.5996C50.7686 15.7996 50.8634 15.9996 51.1479 15.9996H53.234C53.4236 15.9996 53.6132 15.8996 53.6132 15.5996L54.0874 12.4996C54.0874 12.1996 54.3718 11.9996 54.6563 11.9996H55.9838C58.6389 11.9996 60.1561 10.5996 60.6302 7.89961C60.8198 6.69961 60.6302 5.79961 60.1561 5.09961C59.4923 4.49961 58.4492 4.09961 57.0269 4.09961Z" fill="#434343"/>
<path d="M66.5086 12.1004C66.3189 13.3004 65.4655 14.1004 64.3276 14.1004C63.7587 14.1004 63.2846 13.9004 63.0001 13.5004C62.7157 13.1004 62.6208 12.6004 62.7156 12.1004C62.9053 10.9004 63.7587 10.1004 64.8966 10.1004C65.4655 10.1004 65.9396 10.3004 66.2241 10.7004C66.4138 11.0004 66.6034 11.5004 66.5086 12.1004ZM69.1636 8.10039H67.2672C67.0775 8.10039 66.9827 8.20039 66.8879 8.40039L66.7931 9.00039L66.6982 8.80039C66.3189 8.20039 65.3707 7.90039 64.4225 7.90039C62.2415 7.90039 60.4399 9.60039 60.0606 12.0004C59.871 13.2004 60.1554 14.3004 60.8192 15.1004C61.3881 15.8004 62.2415 16.1004 63.2846 16.1004C64.9914 16.1004 65.9396 14.9004 65.9396 14.9004L65.8448 15.5004C65.8448 15.7004 65.9396 15.9004 66.2241 15.9004H67.9309C68.2154 15.9004 68.405 15.7004 68.4999 15.4004L69.5429 8.40039C69.5429 8.30039 69.3533 8.10039 69.1636 8.10039Z" fill="#434343"/>
<path d="M71.4402 4.39961L69.7334 15.5996C69.7334 15.7996 69.8282 15.9996 70.1127 15.9996H71.8195C72.104 15.9996 72.2936 15.7996 72.3885 15.4996L74.0004 4.49961C74.0004 4.29961 73.9056 4.09961 73.6212 4.09961H71.7247C71.6299 4.09961 71.5351 4.29961 71.4402 4.39961Z" fill="#434343"/>
<path d="M5.06384 18.0996L5.34829 15.9996H4.68453H1.36572L3.64149 0.699608C3.64149 0.699608 3.64148 0.599609 3.7363 0.599609H3.83113H9.42569C11.2273 0.599609 12.5549 0.99961 13.2186 1.79961C13.5031 2.19961 13.6927 2.59961 13.7876 2.99961C13.8824 3.49961 13.8824 3.99961 13.7876 4.69961V5.09961L14.072 5.29961C14.3565 5.39961 14.5462 5.59961 14.7358 5.79961C15.0203 6.09961 15.2099 6.49961 15.2099 6.99961C15.3047 7.49961 15.3047 8.09961 15.1151 8.79961C14.9254 9.59961 14.7358 10.1996 14.4513 10.7996C14.1669 11.2996 13.7876 11.6996 13.4083 12.0996C13.029 12.3996 12.46 12.5996 11.9859 12.7996C11.417 12.8996 10.848 12.9996 10.1843 12.9996H9.71017C9.4257 12.9996 9.14123 13.0996 8.85676 13.2996C8.66712 13.4996 8.47747 13.7996 8.38265 14.0996V14.2996L7.8137 17.9996V18.0996V18.1996C7.8137 18.1996 7.8137 18.1996 7.71887 18.1996H5.06384V18.0996Z" fill="#1E1E1E"/>
<path d="M14.4511 4.7002C14.4511 4.8002 14.4511 4.9002 14.3562 5.0002C13.5976 9.0002 11.1323 10.3002 7.90827 10.3002H6.29626C5.91697 10.3002 5.53769 10.6002 5.53769 11.0002L4.68427 16.6002L4.49463 18.2002C4.49463 18.5002 4.68427 18.7002 4.87392 18.7002H7.81344C8.19273 18.7002 8.4772 18.4002 8.4772 18.1002V17.9002L9.04614 14.3002V14.1002C9.14097 13.7002 9.42543 13.5002 9.7099 13.5002H10.184C13.0287 13.5002 15.2096 12.3002 15.7786 8.8002C16.0631 7.3002 15.8734 6.1002 15.2097 5.3002C15.02 5.1002 14.7355 4.9002 14.4511 4.7002Z" fill="#434343"/>
<path d="M13.6924 4.39961C13.5976 4.39961 13.5027 4.29961 13.3131 4.29961C13.2183 4.29961 13.0286 4.19961 12.9338 4.19961C12.4597 4.09961 11.9856 4.09961 11.5114 4.09961H7.14959C7.05477 4.09961 6.95994 4.09961 6.86512 4.19961C6.67547 4.29961 6.48583 4.49961 6.48583 4.69961L5.5376 10.8996V11.0996C5.63242 10.6996 5.91688 10.3996 6.29617 10.3996H7.90818C11.1322 10.3996 13.5976 8.99961 14.3561 5.09961C14.3561 4.99961 14.3561 4.89961 14.451 4.79961C14.2613 4.69961 14.0717 4.59961 13.882 4.49961C13.7872 4.39961 13.6924 4.39961 13.6924 4.39961Z" fill="#0E0E0E"/>
<path d="M6.48578 4.7C6.48578 4.5 6.67542 4.3 6.86506 4.2C6.95989 4.2 7.05471 4.1 7.14954 4.1H11.5114C11.9855 4.1 12.5544 4.1 12.9337 4.2C13.0286 4.2 13.2182 4.2 13.313 4.3C13.4079 4.3 13.5027 4.4 13.6923 4.4C13.7872 4.4 13.7872 4.4 13.882 4.5C14.0716 4.6 14.2613 4.7 14.4509 4.8C14.6406 3.3 14.4509 2.3 13.6923 1.4C12.8389 0.399998 11.3218 0 9.42529 0H3.83073C3.45143 0 3.07214 0.299997 3.07214 0.699997L0.796387 16.1C0.796387 16.4 0.986033 16.7 1.2705 16.7H4.68413L5.53755 10.9L6.48578 4.7Z" fill="#1E1E1E"/>
</svg>
