<svg width="66" height="21" viewBox="0 0 66 21" fill="none" xmlns="http://www.w3.org/2000/svg">
<path d="M61.4236 0.299805H57.3462C56.1135 0.299805 55.1652 0.699805 54.5963 1.9998L46.8208 20.6998H52.3205C52.3205 20.6998 53.2688 18.1998 53.4584 17.5998C54.0274 17.5998 59.4323 17.5998 60.1909 17.5998C60.3805 18.2998 60.8546 20.5998 60.8546 20.5998H65.7854L61.4236 0.299805ZM54.9756 13.3998C55.4497 12.1998 57.0617 7.6998 57.0617 7.6998C57.0617 7.7998 57.5358 6.4998 57.7255 5.7998L58.1048 7.5998C58.1048 7.5998 59.1478 12.4998 59.3375 13.4998H54.9756V13.3998Z" fill="#303030"/>
<path d="M47.2004 14C47.2004 18.2 43.5971 21 38.0026 21C35.632 21 33.3562 20.5 32.1235 19.9L32.8821 15.3L33.5459 15.6C35.2527 16.4 36.3906 16.7 38.4767 16.7C39.9939 16.7 41.6059 16.1 41.6059 14.7C41.6059 13.8 40.9421 13.2 38.856 12.2C36.8647 11.2 34.2096 9.6 34.2096 6.7C34.2096 2.7 37.9077 0 43.123 0C45.1143 0 46.8211 0.4 47.8642 0.9L47.1056 5.3L46.7263 4.9C45.7781 4.5 44.5454 4.1 42.7437 4.1C40.7524 4.2 39.8042 5.1 39.8042 5.9C39.8042 6.8 40.9421 7.5 42.7437 8.4C45.7781 9.9 47.2004 11.6 47.2004 14Z" fill="#2D2D2D"/>
<path d="M0.926758 0.499609L1.02158 0.0996094H9.17637C10.3143 0.0996094 11.1677 0.499609 11.4521 1.79961L13.2538 10.7996C11.4521 5.99961 7.27991 2.09961 0.926758 0.499609Z" fill="#7B7B7B"/>
<path d="M24.7274 0.300195L16.4778 20.6002H10.8832L6.14209 3.6002C9.55572 5.9002 12.4004 9.5002 13.4435 12.0002L14.0124 14.1002L19.1329 0.200195H24.7274V0.300195Z" fill="#2D2D2D"/>
<path d="M26.9082 0.200195H32.1234L28.8046 20.6002H23.5894L26.9082 0.200195Z" fill="#2D2D2D"/>
</svg>
