<svg width="1088" height="183" viewBox="0 0 1088 183" fill="none" xmlns="http://www.w3.org/2000/svg">
<path d="M1072.28 10.5861L1087.28 17.7464L1087.28 0.425829L1072.28 7.58608L1072.28 10.5861ZM356.777 180.739L356.777 182.239L357.792 182.239L358.169 181.297L356.777 180.739ZM425.5 9.08591L425.5 7.58591L424.485 7.58591L424.108 8.52839L425.5 9.08591ZM0.776662 182.239L8.19333 182.239L8.19333 179.239L0.776662 179.239L0.776662 182.239ZM23.0267 182.239L37.86 182.239L37.86 179.239L23.0267 179.239L23.0267 182.239ZM52.6934 182.239L67.5267 182.239L67.5267 179.239L52.6934 179.239L52.6934 182.239ZM82.36 182.239L97.1934 182.239L97.1934 179.239L82.36 179.239L82.36 182.239ZM112.027 182.239L126.86 182.239L126.86 179.239L112.027 179.239L112.027 182.239ZM141.693 182.239L156.527 182.239L156.527 179.239L141.693 179.239L141.693 182.239ZM171.36 182.239L186.193 182.239L186.193 179.239L171.36 179.239L171.36 182.239ZM201.027 182.239L215.86 182.239L215.86 179.239L201.027 179.239L201.027 182.239ZM230.693 182.239L245.527 182.239L245.527 179.239L230.693 179.239L230.693 182.239ZM260.36 182.239L275.194 182.239L275.193 179.239L260.36 179.239L260.36 182.239ZM290.027 182.239L304.86 182.239L304.86 179.239L290.027 179.239L290.027 182.239ZM319.694 182.239L334.527 182.239L334.527 179.239L319.694 179.239L319.694 182.239ZM349.36 182.239L356.777 182.239L356.777 179.239L349.36 179.239L349.36 182.239ZM358.169 181.297L361.033 174.145L358.248 173.029L355.384 180.182L358.169 181.297ZM366.76 159.84L372.487 145.536L369.702 144.421L363.975 158.725L366.76 159.84ZM378.214 131.231L383.941 116.927L381.156 115.812L375.429 130.116L378.214 131.231ZM389.668 102.622L395.395 88.3179L392.609 87.2028L386.882 101.507L389.668 102.622ZM401.121 74.0134L406.848 59.709L404.063 58.5939L398.336 72.8984L401.121 74.0134ZM412.575 45.4045L418.302 31.1001L415.517 29.985L409.79 44.2895L412.575 45.4045ZM424.029 16.7956L426.893 9.64343L424.108 8.52839L421.244 15.6806L424.029 16.7956ZM425.5 10.5859L433.02 10.5859L433.02 7.58591L425.5 7.58591L425.5 10.5859ZM448.061 10.5859L463.101 10.5859L463.101 7.58592L448.061 7.58592L448.061 10.5859ZM478.141 10.5859L493.182 10.5859L493.182 7.58593L478.141 7.58593L478.141 10.5859ZM508.222 10.5859L523.263 10.5859L523.263 7.58594L508.222 7.58593L508.222 10.5859ZM538.303 10.5859L553.343 10.586L553.343 7.58595L538.303 7.58595L538.303 10.5859ZM568.384 10.586L583.424 10.586L583.424 7.58595L568.384 7.58595L568.384 10.586ZM598.464 10.586L613.505 10.586L613.505 7.58596L598.464 7.58596L598.464 10.586ZM628.545 10.586L643.586 10.586L643.586 7.58598L628.545 7.58596L628.545 10.586ZM658.626 10.586L673.666 10.586L673.666 7.58597L658.626 7.58597L658.626 10.586ZM688.707 10.586L703.747 10.586L703.747 7.58599L688.707 7.58598L688.707 10.586ZM718.788 10.586L733.828 10.586L733.828 7.58599L718.788 7.58599L718.788 10.586ZM748.868 10.586L763.909 10.586L763.909 7.586L748.868 7.586L748.868 10.586ZM778.949 10.586L793.989 10.586L793.989 7.58601L778.949 7.586L778.949 10.586ZM809.03 10.586L824.07 10.586L824.07 7.58602L809.03 7.58602L809.03 10.586ZM839.111 10.586L854.151 10.586L854.151 7.58603L839.111 7.58603L839.111 10.586ZM869.191 10.586L884.232 10.586L884.232 7.58603L869.191 7.58604L869.191 10.586ZM899.272 10.5861L914.312 10.5861L914.312 7.58604L899.272 7.58605L899.272 10.5861ZM929.353 10.586L944.393 10.586L944.393 7.58606L929.353 7.58605L929.353 10.586ZM959.434 10.5861L974.474 10.5861L974.474 7.58605L959.434 7.58606L959.434 10.5861ZM989.514 10.5861L1004.55 10.5861L1004.55 7.58608L989.514 7.58606L989.514 10.5861ZM1019.6 10.5861L1034.64 10.5861L1034.64 7.58608L1019.6 7.58607L1019.6 10.5861ZM1049.68 10.5861L1064.72 10.5861L1064.72 7.5861L1049.68 7.58608L1049.68 10.5861Z" fill="#550A8F"/>
</svg>
