<svg width="1085" height="190" viewBox="0 0 1085 190" fill="none" xmlns="http://www.w3.org/2000/svg">
<path d="M15.342 7.99569L0.340925 0.837793L0.343645 18.1583L15.3425 10.9957L15.342 7.99569ZM730.418 188.384L729.043 188.983L729.435 189.884L730.418 189.884L730.418 188.384ZM652.385 9.39567L653.76 8.79621L653.367 7.89551L652.385 7.89567L652.385 9.39567ZM22.5713 10.9946L37.3904 10.9922L37.3899 7.99223L22.5708 7.99456L22.5713 10.9946ZM52.2096 10.9899L67.0287 10.9876L67.0282 7.98758L52.2091 7.9899L52.2096 10.9899ZM81.8479 10.9852L96.667 10.9829L96.6665 7.98292L81.8474 7.98525L81.8479 10.9852ZM111.486 10.9806L126.305 10.9783L126.305 7.97827L111.486 7.9806L111.486 10.9806ZM141.124 10.9759L155.944 10.9736L155.943 7.97362L141.124 7.97594L141.124 10.9759ZM170.763 10.9713L185.582 10.969L185.581 7.96896L170.762 7.97129L170.763 10.9713ZM200.401 10.9666L215.22 10.9643L215.22 7.96431L200.401 7.96664L200.401 10.9666ZM230.039 10.962L244.859 10.9597L244.858 7.95965L230.039 7.96198L230.039 10.962ZM259.678 10.9573L274.497 10.955L274.496 7.955L259.677 7.95733L259.678 10.9573ZM289.316 10.9527L304.135 10.9503L304.135 7.95035L289.316 7.95267L289.316 10.9527ZM318.954 10.948L333.773 10.9457L333.773 7.94569L318.954 7.94802L318.954 10.948ZM348.593 10.9434L363.412 10.941L363.411 7.94104L348.592 7.94337L348.593 10.9434ZM378.231 10.9387L393.05 10.9364L393.05 7.93639L378.23 7.93871L378.231 10.9387ZM407.869 10.9341L422.688 10.9317L422.688 7.93173L407.869 7.93406L407.869 10.9341ZM437.508 10.9294L452.327 10.9271L452.326 7.92708L437.507 7.92941L437.508 10.9294ZM467.146 10.9248L481.965 10.9224L481.965 7.92243L467.145 7.92475L467.146 10.9248ZM496.784 10.9201L511.603 10.9178L511.603 7.91777L496.784 7.9201L496.784 10.9201ZM526.422 10.9154L541.242 10.9131L541.241 7.91312L526.422 7.91545L526.422 10.9154ZM556.061 10.9108L570.88 10.9085L570.879 7.90847L556.06 7.91079L556.061 10.9108ZM585.699 10.9061L600.518 10.9038L600.518 7.90381L585.699 7.90614L585.699 10.9061ZM615.337 10.9015L630.157 10.8992L630.156 7.89916L615.337 7.90148L615.337 10.9015ZM644.976 10.8968L652.385 10.8957L652.385 7.89567L644.975 7.89683L644.976 10.8968ZM651.01 9.99513L653.797 16.3876L656.547 15.1886L653.76 8.79621L651.01 9.99513ZM659.371 29.1724L664.944 41.9573L667.694 40.7584L662.121 27.9735L659.371 29.1724ZM670.518 54.7421L676.092 67.527L678.842 66.3281L673.268 53.5432L670.518 54.7421ZM681.666 80.3118L687.239 93.0967L689.989 91.8978L684.416 79.1129L681.666 80.3118ZM692.813 105.882L698.387 118.666L701.137 117.467L695.563 104.683L692.813 105.882ZM703.961 131.451L709.535 144.236L712.285 143.037L706.711 130.252L703.961 131.451ZM715.108 157.021L720.682 169.806L723.432 168.607L717.858 155.822L715.108 157.021ZM726.256 182.591L729.043 188.983L731.793 187.784L729.006 181.392L726.256 182.591ZM730.418 189.884L737.795 189.883L737.794 186.883L730.417 186.884L730.418 189.884ZM752.548 189.88L767.302 189.878L767.301 186.878L752.548 186.88L752.548 189.88ZM782.055 189.876L796.808 189.873L796.808 186.873L782.055 186.876L782.055 189.876ZM811.562 189.871L826.315 189.869L826.315 186.869L811.561 186.871L811.562 189.871ZM841.069 189.866L855.822 189.864L855.822 186.864L841.068 186.866L841.069 189.866ZM870.576 189.862L885.329 189.859L885.329 186.859L870.575 186.862L870.576 189.862ZM900.083 189.857L914.836 189.855L914.835 186.855L900.082 186.857L900.083 189.857ZM929.589 189.852L944.343 189.85L944.342 186.85L929.589 186.852L929.589 189.852ZM959.096 189.848L973.85 189.845L973.849 186.845L959.096 186.848L959.096 189.848ZM988.603 189.843L1003.36 189.841L1003.36 186.841L988.603 186.843L988.603 189.843ZM1018.11 189.838L1032.86 189.836L1032.86 186.836L1018.11 186.838L1018.11 189.838ZM1047.62 189.834L1062.37 189.832L1062.37 186.832L1047.62 186.834L1047.62 189.834ZM1077.12 189.829L1084.5 189.828L1084.5 186.828L1077.12 186.829L1077.12 189.829Z" fill="#550A8F"/>
</svg>
